<svg width="40" height="40" viewBox="0 0 40 40" fill="none" xmlns="http://www.w3.org/2000/svg">
<rect width="40" height="40" rx="20" fill="#FFEEF3"/>
<rect x="0.5" y="0.5" width="39" height="39" rx="19.5" stroke="#F8285A" stroke-opacity="0.2"/>
<path d="M20 11.6666C15.3917 11.6666 11.6667 15.3916 11.6667 20C11.6667 24.6083 15.3917 28.3333 20 28.3333C24.6083 28.3333 28.3333 24.6083 28.3333 20C28.3333 15.3916 24.6083 11.6666 20 11.6666ZM23.5833 23.5833C23.2583 23.9083 22.7333 23.9083 22.4083 23.5833L20 21.175L17.5917 23.5833C17.2667 23.9083 16.7417 23.9083 16.4167 23.5833C16.0917 23.2583 16.0917 22.7333 16.4167 22.4083L18.825 20L16.4167 17.5916C16.0917 17.2666 16.0917 16.7416 16.4167 16.4166C16.7417 16.0916 17.2667 16.0916 17.5917 16.4166L20 18.825L22.4083 16.4166C22.7333 16.0916 23.2583 16.0916 23.5833 16.4166C23.9083 16.7416 23.9083 17.2666 23.5833 17.5916L21.175 20L23.5833 22.4083C23.9 22.725 23.9 23.2583 23.5833 23.5833Z" fill="#F8285A"/>
</svg>
