<svg viewBox="0 0 32 32" xmlns="http://www.w3.org/2000/svg">
<path fill-rule="evenodd" clip-rule="evenodd" d="M16.4203 2.66797C19.6603 2.66797 20.1323 2.6853 21.4977 2.74797C22.9163 2.8133 23.8857 3.03864 24.7337 3.36797C25.6237 3.70247 26.43 4.22711 27.0963 4.9053C27.7745 5.57167 28.2992 6.37797 28.6337 7.26797C28.963 8.11597 29.1883 9.0853 29.2537 10.504C29.3177 11.9266 29.3337 12.38 29.3337 16.0013V16.108C29.3337 19.632 29.3177 20.0906 29.2537 21.4986C29.1883 22.9173 28.963 23.8866 28.6337 24.7346C28.2992 25.6246 27.7745 26.4309 27.0963 27.0973C26.43 27.7755 25.6237 28.3001 24.7337 28.6346C23.8857 28.964 22.9163 29.1893 21.4977 29.2546C20.075 29.3186 19.6217 29.3346 16.0003 29.3346H15.8937C12.3697 29.3346 11.911 29.3186 10.503 29.2546C9.08433 29.1893 8.11499 28.964 7.26699 28.6346C6.37699 28.3001 5.57069 27.7755 4.90433 27.0973C4.22613 26.4309 3.70149 25.6246 3.36699 24.7346C3.03766 23.8866 2.81233 22.9173 2.74699 21.4986C2.68433 20.1333 2.66699 19.66 2.66699 16.4213V15.5813C2.66699 12.3413 2.68433 11.8693 2.74699 10.504C2.81233 9.0853 3.03766 8.11597 3.36699 7.26797C3.70149 6.37797 4.22613 5.57167 4.90433 4.9053C5.57069 4.22711 6.37699 3.70247 7.26699 3.36797C8.11499 3.03864 9.08433 2.8133 10.503 2.74797C11.8683 2.6853 12.3417 2.66797 15.5803 2.66797H16.4203ZM16.3123 5.07064H15.6883C12.4137 5.07064 11.9763 5.0853 10.6123 5.14797C9.31233 5.20797 8.60699 5.42397 8.13633 5.60664C7.51366 5.8493 7.06966 6.1373 6.60299 6.60397C6.13633 7.07064 5.84833 7.51464 5.60566 8.1373C5.42299 8.60797 5.20566 9.3133 5.14699 10.6133C5.08433 11.9773 5.06966 12.4146 5.06966 15.6893V16.3133C5.06966 19.588 5.08433 20.0253 5.14699 21.3893C5.20699 22.6893 5.42299 23.3946 5.60566 23.8653C5.84833 24.4866 6.13766 24.932 6.60299 25.3986C7.06966 25.8653 7.51366 26.1533 8.13633 26.396C8.60699 26.5786 9.31233 26.796 10.6123 26.8546C12.0177 26.9186 12.439 26.932 16.0003 26.932H16.107C19.5697 26.932 19.9963 26.9186 21.387 26.8546C22.6883 26.7946 23.3937 26.5786 23.8643 26.396C24.4857 26.1533 24.931 25.8653 25.3977 25.3986C25.8643 24.932 26.1523 24.488 26.395 23.8653C26.5777 23.3946 26.795 22.6893 26.8537 21.3893C26.9177 19.9826 26.931 19.5626 26.931 16.0013V15.8946C26.931 12.432 26.9177 12.0053 26.8537 10.6146C26.7937 9.3133 26.5777 8.60797 26.395 8.1373C26.1814 7.55806 25.8405 7.0341 25.3977 6.60397C24.9675 6.16111 24.4435 5.82032 23.8643 5.60664C23.3937 5.42397 22.6883 5.20664 21.3883 5.14797C20.0243 5.0853 19.587 5.07064 16.3123 5.07064ZM16.0003 9.15464C16.8994 9.15464 17.7898 9.33173 18.6204 9.67581C19.4511 10.0199 20.2059 10.5242 20.8417 11.16C21.4774 11.7958 21.9817 12.5505 22.3258 13.3812C22.6699 14.2119 22.847 15.1022 22.847 16.0013C22.847 16.9004 22.6699 17.7907 22.3258 18.6214C21.9817 19.4521 21.4774 20.2069 20.8417 20.8426C20.2059 21.4784 19.4511 21.9827 18.6204 22.3268C17.7898 22.6709 16.8994 22.848 16.0003 22.848C14.1845 22.848 12.443 22.1266 11.159 20.8426C9.875 19.5586 9.15366 17.8172 9.15366 16.0013C9.15366 14.1855 9.875 12.444 11.159 11.16C12.443 9.87598 14.1845 9.15464 16.0003 9.15464ZM16.0003 11.5573C14.8217 11.5573 13.6914 12.0255 12.8579 12.8589C12.0245 13.6923 11.5563 14.8227 11.5563 16.0013C11.5563 17.1799 12.0245 18.3103 12.8579 19.1437C13.6914 19.9771 14.8217 20.4453 16.0003 20.4453C17.1789 20.4453 18.3093 19.9771 19.1427 19.1437C19.9761 18.3103 20.4443 17.1799 20.4443 16.0013C20.4443 14.8227 19.9761 13.6923 19.1427 12.8589C18.3093 12.0255 17.1789 11.5573 16.0003 11.5573ZM23.1177 7.28397C23.542 7.28397 23.949 7.45254 24.249 7.7526C24.5491 8.05266 24.7177 8.45962 24.7177 8.88397C24.7177 9.30832 24.5491 9.71528 24.249 10.0153C23.949 10.3154 23.542 10.484 23.1177 10.484C22.6933 10.484 22.2863 10.3154 21.9863 10.0153C21.6862 9.71528 21.5177 9.30832 21.5177 8.88397C21.5177 8.45962 21.6862 8.05266 21.9863 7.7526C22.2863 7.45254 22.6933 7.28397 23.1177 7.28397Z" fill="currentcolor"/>
</svg>
