<svg width="32" height="32" viewBox="0 0 16 16" fill="none" xmlns="http://www.w3.org/2000/svg">
  <path d="M3.87501 15.5H0.687497V5.46875H3.87501V15.5ZM2.28125 4.0625C1.25 4.0625 0.5 3.3125 0.5 2.28125C0.5 1.25 1.34375 0.5 2.28125 0.5C3.3125 0.5 4.0625 1.25 4.0625 2.28125C4.0625 3.3125 3.3125 4.0625 2.28125 4.0625ZM15.5 15.5H12.3125V10.0625C12.3125 8.46875 11.6562 8 10.7187 8C9.78124 8 8.84374 8.75 8.84374 10.1562V15.5H5.65625V5.46875H8.65625V6.875C8.9375 6.21875 10.0625 5.1875 11.6562 5.1875C13.4375 5.1875 15.3125 6.21875 15.3125 9.3125V15.5H15.5Z" fill="currentColor"/>
</svg>
