<svg width="40" height="40" viewBox="0 0 40 40" fill="none" xmlns="http://www.w3.org/2000/svg">
<rect width="40" height="40" rx="20" fill="#EAFFF1"/>
<rect x="0.5" y="0.5" width="39" height="39" rx="19.5" stroke="#17C653" stroke-opacity="0.2"/>
<path d="M20 11.6666C15.4 11.6666 11.6667 15.4 11.6667 20C11.6667 24.6 15.4 28.3333 20 28.3333C24.6 28.3333 28.3333 24.6 28.3333 20C28.3333 15.4 24.6 11.6666 20 11.6666ZM17.7417 23.575L14.75 20.5833C14.425 20.2583 14.425 19.7333 14.75 19.4083C15.075 19.0833 15.6 19.0833 15.925 19.4083L18.3333 21.8083L24.0667 16.075C24.3917 15.75 24.9167 15.75 25.2417 16.075C25.5667 16.4 25.5667 16.925 25.2417 17.25L18.9167 23.575C18.6 23.9 18.0667 23.9 17.7417 23.575Z" fill="#17C653"/>
</svg>
