<svg width="32" height="32" viewBox="0 0 16 12" fill="none" xmlns="http://www.w3.org/2000/svg" role="img" aria-label="YouTube icon">
  <path d="M15.125 2.34375C14.9375 1.6875 14.4688 1.21875 13.8125 1.03125C12.6875 0.75 7.90624 0.75 7.90624 0.75C7.90624 0.75 3.21876 0.75 2.00001 1.03125C1.34376 1.21875 0.874997 1.6875 0.687497 2.34375C0.499997 3.5625 0.5 6 0.5 6C0.5 6 0.500003 8.4375 0.781253 9.65625C0.968753 10.3125 1.4375 10.7812 2.09375 10.9688C3.21875 11.25 8 11.25 8 11.25C8 11.25 12.6875 11.25 13.9062 10.9688C14.5625 10.7812 15.0313 10.3125 15.2188 9.65625C15.5 8.4375 15.5 6 15.5 6C15.5 6 15.5 3.5625 15.125 2.34375ZM6.49999 8.25V3.75L10.4375 6L6.49999 8.25Z" fill="currentColor"/>
</svg>
